# xmcd
#
# Track frame offsets: 
#        150
#        13811
#        23164
#        35508
#        47950
#        57714
#        69293
#        78704
#        90960
#        102749
#        113260
#        123298
#        138359
#        149432
#        161551
#
# Disc length: 2300 seconds
#
# Revision: 0
# Processed by: cddbd v1.5.2PL0 Copyright (c) Steve Scherf et al.
# Submitted via: ExactAudioCopy v1.1
#
DISCID=cc08fa0f
DTITLE=Lynn Anderson - The Christmas Album
DYEAR=1971
DGENRE=Country
TTITLE0=Ding-a-ling the Christmas Bell
TTITLE1=Jingle Bell Rock
TTITLE2=The Spirit of Christmas
TTITLE3=Rudolf the Red-Nosed Reindeer
TTITLE4=Soon It Will Be Christmas Day
TTITLE5=I Saw Mommy Kissing Santa Claus
TTITLE6=Rockin' Around the Christmas Tree
TTITLE7=Mr. Mistletoe
TTITLE8=A Whistle and a Whisker Away
TTITLE9=Frosty the Snowman
TTITLE10=Don't Wish Me Merry Christmas
TTITLE11=Ding-a-ling the Christmas Bell (1971 Promo Christmas Seals Ve
TTITLE11=rsion)
TTITLE12=Don't Wish Me Merry Christmas (1971 Promo Christmas Seals Ver
TTITLE12=sion)
TTITLE13=(1972 Promo Christmas Seals Version)
TTITLE14=Don't Wish Me Merry Christmas (1972 Promo Christmas Seals Ver
TTITLE14=sion)
EXTD=
EXTT0=
EXTT1=
EXTT2=
EXTT3=
EXTT4=
EXTT5=
EXTT6=
EXTT7=
EXTT8=
EXTT9=
EXTT10=
EXTT11=
EXTT12=
EXTT13=
EXTT14=
PLAYORDER=
